# Blender v2.93.5 OBJ File: 'newPencil.blend'
# www.blender.org
mtllib Sleeve.mtl
o Sleeve
v -0.000004 -0.268159 59.452885
v 0.060836 -0.362981 59.452885
v -0.000004 -0.368159 59.452885
v -0.043944 -0.264419 59.452885
v -0.060844 -0.362981 59.452885
v -0.000005 -0.368157 67.452881
v -0.060845 -0.362979 67.452881
v 0.043936 -0.264419 59.452885
v 0.119926 -0.347595 59.452885
v 0.060835 -0.362979 67.452881
v -0.086620 -0.253307 59.452885
v -0.119934 -0.347595 59.452885
v -0.119935 -0.347593 67.452881
v 0.086612 -0.253307 59.452885
v 0.175566 -0.322444 59.452885
v 0.119925 -0.347593 67.452881
v -0.126805 -0.235143 59.452885
v -0.175574 -0.322444 59.452885
v -0.175575 -0.322442 67.452881
v 0.126797 -0.235143 59.452885
v 0.226155 -0.288252 59.452885
v 0.175565 -0.322442 67.452881
v -0.163341 -0.210448 59.452885
v -0.226163 -0.288252 59.452885
v -0.226164 -0.288250 67.452881
v 0.163333 -0.210448 59.452885
v 0.270238 -0.246002 59.452885
v 0.226154 -0.288250 67.452881
v -0.195179 -0.179934 59.452885
v -0.270246 -0.246002 59.452885
v -0.270247 -0.246000 67.452881
v -0.043945 -0.264417 67.452881
v -0.000005 -0.268157 67.452881
v 0.043935 -0.264417 67.452881
v -0.086621 -0.253305 67.452881
v 0.086611 -0.253305 67.452881
v -0.126806 -0.235141 67.452881
v 0.195171 -0.179934 59.452885
v 0.306546 -0.196910 59.452885
v 0.270237 -0.246000 67.452881
v -0.221402 -0.144479 59.452885
v -0.306555 -0.196910 59.452885
v -0.306556 -0.196908 67.452881
v 0.126796 -0.235141 67.452881
v -0.163342 -0.210446 67.452881
v 0.163332 -0.210446 67.452881
v -0.195180 -0.179932 67.452881
v 0.221394 -0.144479 59.452885
v 0.334036 -0.142387 59.452885
v 0.306545 -0.196908 67.452881
v -0.241255 -0.105102 59.452885
v -0.334044 -0.142387 59.452885
v -0.334045 -0.142385 67.452881
v 0.195170 -0.179932 67.452881
v -0.221403 -0.144477 67.452881
v 0.241247 -0.105102 59.452885
v 0.221393 -0.144477 67.452881
v -0.241256 -0.105100 67.452881
v 0.351916 -0.084004 59.452885
v 0.334035 -0.142385 67.452881
v -0.254168 -0.062936 59.452885
v -0.351924 -0.084004 59.452885
v -0.351925 -0.084002 67.452881
v 0.254160 -0.062936 59.452885
v 0.241246 -0.105100 67.452881
v -0.254169 -0.062934 67.452881
v 0.359672 -0.023438 59.452885
v 0.351915 -0.084002 67.452881
v -0.259770 -0.019194 59.452885
v -0.359680 -0.023438 59.452885
v -0.359681 -0.023436 67.452881
v 0.259762 -0.019194 59.452885
v 0.254159 -0.062934 67.452881
v -0.259771 -0.019192 67.452881
v 0.357080 0.037567 59.452885
v 0.359671 -0.023436 67.452881
v -0.257898 0.024866 59.452885
v -0.357088 0.037567 59.452885
v -0.357089 0.037569 67.452881
v 0.257890 0.024866 59.452885
v 0.259761 -0.019192 67.452881
v -0.257899 0.024868 67.452881
v 0.248599 0.067975 59.452885
v 0.344216 0.097257 59.452885
v 0.257889 0.024868 67.452881
v -0.248607 0.067975 59.452885
v -0.248608 0.067977 67.452881
v 0.357079 0.037569 67.452881
v -0.344224 0.097257 59.452885
v -0.344225 0.097259 67.452881
v 0.232157 0.108894 59.452885
v 0.321449 0.153914 59.452885
v 0.248598 0.067977 67.452881
v -0.232165 0.108894 59.452885
v -0.232166 0.108896 67.452881
v 0.344215 0.097259 67.452881
v -0.321457 0.153914 59.452885
v -0.321458 0.153916 67.452881
v 0.209035 0.146446 59.452885
v 0.289435 0.205909 59.452885
v 0.232156 0.108896 67.452881
v -0.209043 0.146446 59.452885
v -0.209044 0.146448 67.452881
v 0.179900 0.179550 59.452885
v 0.249094 0.251745 59.452885
v 0.209034 0.146448 67.452881
v -0.289443 0.205909 59.452885
v -0.179908 0.179550 59.452885
v -0.179909 0.179552 67.452881
v 0.321448 0.153916 67.452881
v -0.289444 0.205911 67.452881
v 0.145589 0.207254 59.452885
v 0.201587 0.290105 59.452885
v 0.179899 0.179552 67.452881
v -0.249102 0.251745 59.452885
v -0.145597 0.207254 59.452885
v -0.145598 0.207256 67.452881
v 0.289434 0.205911 67.452881
v -0.249103 0.251747 67.452881
v 0.107090 0.228760 59.452885
v 0.148280 0.319883 59.452885
v 0.145588 0.207256 67.452881
v -0.201595 0.290105 59.452885
v -0.107098 0.228760 59.452885
v -0.107099 0.228762 67.452881
v 0.065510 0.243452 59.452885
v 0.090708 0.340225 59.452885
v 0.107089 0.228762 67.452881
v -0.148288 0.319883 59.452885
v -0.065518 0.243452 59.452885
v -0.065519 0.243454 67.452881
v 0.022046 0.250904 59.452885
v 0.030526 0.350544 59.452885
v 0.065509 0.243454 67.452881
v -0.090716 0.340225 59.452885
v -0.022054 0.250904 59.452885
v -0.022055 0.250906 67.452881
v -0.000004 0.251841 59.452885
v -0.000004 0.351841 59.452885
v 0.022045 0.250906 67.452881
v -0.030534 0.350544 59.452885
v -0.000005 0.251843 67.452881
v 0.249093 0.251747 67.452881
v -0.201596 0.290107 67.452881
v 0.201586 0.290107 67.452881
v -0.148289 0.319885 67.452881
v 0.148279 0.319885 67.452881
v -0.090717 0.340227 67.452881
v 0.090707 0.340227 67.452881
v -0.030535 0.350546 67.452881
v -0.000005 0.351843 67.452881
v 0.030525 0.350546 67.452881
vn 0.0001 0.0000 -1.0000
vn -0.0000 0.0000 -1.0000
vn -0.0001 0.0000 -1.0000
vn 0.0848 -0.9964 0.0000
vn -0.0848 -0.9964 0.0000
vn 0.2520 -0.9677 0.0000
vn -0.2520 -0.9677 0.0000
vn 0.4119 -0.9112 0.0000
vn -0.4119 -0.9112 0.0000
vn 0.5600 -0.8285 0.0000
vn -0.5600 -0.8285 0.0000
vn 0.6919 -0.7220 0.0000
vn -0.6919 -0.7220 0.0000
vn 0.0848 0.9964 -0.0000
vn -0.0848 0.9964 -0.0000
vn -0.2520 0.9677 -0.0000
vn 0.2520 0.9677 -0.0000
vn -0.4119 0.9112 -0.0000
vn 0.4119 0.9112 -0.0000
vn 0.8040 -0.5946 0.0000
vn -0.8040 -0.5946 -0.0000
vn -0.5600 0.8285 -0.0000
vn 0.5600 0.8285 -0.0000
vn -0.6919 0.7220 -0.0000
vn 0.6919 0.7220 -0.0000
vn 0.8929 -0.4502 0.0000
vn -0.8929 -0.4502 -0.0000
vn -0.8040 0.5946 -0.0000
vn 0.8040 0.5946 0.0000
vn -0.8929 0.4502 -0.0000
vn 0.8929 0.4502 0.0000
vn 0.9562 -0.2928 0.0000
vn -0.9562 -0.2928 -0.0000
vn -0.9562 0.2928 -0.0000
vn 0.9562 0.2928 0.0000
vn 0.9919 -0.1270 0.0000
vn -0.9919 -0.1270 -0.0000
vn -0.9919 0.1270 -0.0000
vn 0.9919 0.1270 0.0000
vn 0.9991 0.0424 0.0000
vn -0.9991 0.0425 -0.0000
vn -0.9991 0.0424 -0.0000
vn -0.9991 -0.0424 -0.0000
vn -0.9991 -0.0425 -0.0000
vn 0.9991 -0.0425 0.0000
vn 0.9991 -0.0424 0.0000
vn -0.9776 -0.2107 -0.0000
vn 0.9776 -0.2107 0.0000
vn 0.9776 0.2107 0.0000
vn -0.9776 0.2107 -0.0000
vn -0.9279 -0.3728 -0.0000
vn 0.9279 -0.3728 0.0000
vn 0.9279 0.3729 0.0000
vn -0.9279 0.3729 -0.0000
vn -0.8515 -0.5243 -0.0000
vn 0.8515 -0.5243 0.0000
vn -0.7507 -0.6607 -0.0000
vn 0.7507 -0.6607 0.0000
vn 0.8515 0.5243 0.0000
vn -0.8515 0.5243 -0.0000
vn -0.6282 -0.7780 0.0000
vn 0.6282 -0.7780 0.0000
vn 0.7507 0.6607 0.0000
vn -0.7507 0.6607 -0.0000
vn -0.4877 -0.8730 0.0000
vn 0.4877 -0.8730 0.0000
vn -0.3332 -0.9429 0.0000
vn 0.3332 -0.9429 0.0000
vn -0.0002 0.0000 -1.0000
vn -0.1690 -0.9856 0.0000
vn 0.1690 -0.9856 0.0000
vn -0.0425 -0.9991 0.0000
vn 0.0425 -0.9991 0.0000
vn 0.6282 0.7780 -0.0000
vn -0.6282 0.7780 -0.0000
vn 0.4877 0.8730 -0.0000
vn -0.4877 0.8730 -0.0000
vn 0.3331 0.9429 -0.0000
vn -0.3331 0.9429 -0.0000
vn 0.1690 0.9856 -0.0000
vn -0.1690 0.9856 -0.0000
vn 0.0424 0.9991 -0.0000
vn -0.0424 0.9991 -0.0000
vn 0.0000 0.0000 1.0000
vn 0.0001 0.0000 1.0000
vn -0.0001 0.0000 1.0000
vn 0.0002 0.0000 1.0000
vn -0.0002 0.0000 1.0000
usemtl None.002
s 1
f 1//1 2//2 3//3
f 4//2 1//1 3//3
f 5//2 4//2 3//3
f 2//4 6//4 3//4
f 6//5 7//5 3//5
f 7//5 5//5 3//5
f 8//1 9//2 2//2
f 1//1 8//1 2//2
f 9//6 10//6 2//6
f 10//4 6//4 2//4
f 11//3 4//2 5//2
f 12//1 11//3 5//2
f 7//7 13//7 5//7
f 13//7 12//7 5//7
f 14//2 15//1 9//2
f 8//1 14//2 9//2
f 15//8 16//8 9//8
f 16//6 10//6 9//6
f 17//2 11//3 12//1
f 18//2 17//2 12//1
f 13//9 19//9 12//9
f 19//9 18//9 12//9
f 20//2 21//2 15//1
f 14//2 20//2 15//1
f 21//10 22//10 15//10
f 22//8 16//8 15//8
f 23//2 17//2 18//2
f 24//2 23//2 18//2
f 19//11 25//11 18//11
f 25//11 24//11 18//11
f 26//2 27//2 21//2
f 20//2 26//2 21//2
f 27//12 28//12 21//12
f 28//10 22//10 21//10
f 29//2 23//2 24//2
f 30//1 29//2 24//2
f 25//13 31//13 24//13
f 31//13 30//13 24//13
f 32//14 33//14 1//14
f 4//14 32//14 1//14
f 33//15 8//15 1//15
f 34//16 14//16 8//16
f 33//15 34//15 8//15
f 35//17 32//17 4//17
f 11//17 35//17 4//17
f 36//18 20//18 14//18
f 34//16 36//16 14//16
f 37//19 35//19 11//19
f 17//19 37//19 11//19
f 38//2 39//2 27//2
f 26//2 38//2 27//2
f 39//20 40//20 27//20
f 40//12 28//12 27//12
f 41//2 29//2 30//1
f 42//2 41//2 30//1
f 31//21 43//21 30//21
f 43//21 42//21 30//21
f 44//22 26//22 20//22
f 36//18 44//18 20//18
f 45//23 37//23 17//23
f 23//23 45//23 17//23
f 46//24 38//24 26//24
f 44//22 46//22 26//22
f 47//25 45//25 23//25
f 29//25 47//25 23//25
f 48//2 49//2 39//2
f 38//2 48//2 39//2
f 49//26 50//26 39//26
f 50//20 40//20 39//20
f 51//2 41//2 42//2
f 52//2 51//2 42//2
f 43//27 53//27 42//27
f 53//27 52//27 42//27
f 54//28 48//28 38//28
f 46//24 54//24 38//24
f 55//29 47//29 29//29
f 41//29 55//29 29//29
f 56//2 49//2 48//2
f 57//30 56//30 48//30
f 54//28 57//28 48//28
f 58//31 55//31 41//31
f 51//31 58//31 41//31
f 56//2 59//2 49//2
f 59//32 60//32 49//32
f 60//26 50//26 49//26
f 61//2 51//2 52//2
f 62//2 61//2 52//2
f 53//33 63//33 52//33
f 63//33 62//33 52//33
f 64//2 59//2 56//2
f 65//34 64//34 56//34
f 57//30 65//30 56//30
f 66//35 58//35 51//35
f 61//35 66//35 51//35
f 64//2 67//2 59//2
f 67//36 68//36 59//36
f 68//32 60//32 59//32
f 69//2 61//2 62//2
f 70//2 69//2 62//2
f 63//37 71//37 62//37
f 71//37 70//37 62//37
f 72//1 67//2 64//2
f 73//38 72//38 64//38
f 65//34 73//34 64//34
f 74//39 66//39 61//39
f 69//39 74//39 61//39
f 72//1 75//2 67//2
f 75//40 76//40 67//40
f 76//36 68//36 67//36
f 77//2 69//2 70//2
f 78//3 77//2 70//2
f 71//41 79//41 70//42
f 79//41 78//42 70//42
f 80//2 75//2 72//1
f 81//43 80//44 72//44
f 73//38 81//38 72//38
f 82//45 74//45 69//46
f 77//46 82//45 69//46
f 83//2 84//2 80//2
f 84//2 75//2 80//2
f 85//47 83//47 80//47
f 81//43 85//43 80//44
f 78//3 86//2 77//2
f 87//48 82//48 77//48
f 86//48 87//48 77//48
f 84//49 88//49 75//49
f 88//40 76//40 75//40
f 89//2 86//2 78//3
f 79//50 90//50 78//50
f 90//50 89//50 78//50
f 91//2 92//3 83//2
f 92//3 84//2 83//2
f 93//51 91//51 83//51
f 85//47 93//47 83//47
f 89//2 94//2 86//2
f 95//52 87//52 86//52
f 94//52 95//52 86//52
f 92//53 96//53 84//53
f 96//49 88//49 84//49
f 97//2 94//2 89//2
f 90//54 98//54 89//54
f 98//54 97//54 89//54
f 99//3 100//2 91//2
f 100//2 92//3 91//2
f 101//55 99//55 91//55
f 93//51 101//51 91//51
f 97//2 102//2 94//2
f 103//56 95//56 94//56
f 102//56 103//56 94//56
f 104//3 105//1 99//3
f 105//1 100//2 99//3
f 106//57 104//57 99//57
f 101//55 106//55 99//55
f 97//2 107//2 102//2
f 107//2 108//2 102//2
f 109//58 103//58 102//58
f 108//58 109//58 102//58
f 100//59 110//59 92//59
f 110//53 96//53 92//53
f 98//60 111//60 97//60
f 111//60 107//60 97//60
f 112//2 113//2 104//3
f 113//2 105//1 104//3
f 114//61 112//61 104//61
f 106//57 114//57 104//57
f 107//2 115//3 108//2
f 115//3 116//2 108//2
f 117//62 109//62 108//62
f 116//62 117//62 108//62
f 105//63 118//63 100//63
f 118//59 110//59 100//59
f 111//64 119//64 107//64
f 119//64 115//64 107//64
f 120//2 121//3 112//2
f 121//3 113//2 112//2
f 122//65 120//65 112//65
f 114//61 122//61 112//61
f 115//3 123//3 116//2
f 123//3 124//2 116//2
f 125//66 117//66 116//66
f 124//66 125//66 116//66
f 126//2 127//2 120//2
f 127//2 121//3 120//2
f 128//67 126//67 120//67
f 122//65 128//65 120//65
f 123//3 129//2 124//2
f 129//2 130//2 124//2
f 131//68 125//68 124//68
f 130//68 131//68 124//68
f 132//69 133//2 126//2
f 133//2 127//2 126//2
f 134//70 132//70 126//70
f 128//67 134//67 126//67
f 129//2 135//2 130//2
f 135//2 136//2 130//2
f 137//71 131//71 130//71
f 136//71 137//71 130//71
f 138//69 139//1 132//69
f 139//1 133//2 132//69
f 140//72 138//72 132//72
f 134//70 140//70 132//70
f 135//2 141//1 136//2
f 141//1 138//69 136//2
f 142//73 137//73 136//73
f 138//73 142//73 136//73
f 113//74 143//74 105//74
f 143//63 118//63 105//63
f 119//75 144//75 115//75
f 144//75 123//75 115//75
f 141//1 139//1 138//69
f 140//72 142//72 138//72
f 121//76 145//76 113//76
f 145//74 143//74 113//74
f 144//77 146//77 123//77
f 146//77 129//77 123//77
f 127//78 147//78 121//78
f 147//76 145//76 121//76
f 146//79 148//79 129//79
f 148//79 135//79 129//79
f 133//80 149//80 127//80
f 149//78 147//78 127//78
f 148//81 150//81 135//81
f 150//81 141//81 135//81
f 139//82 151//82 133//82
f 151//82 152//82 133//82
f 152//80 149//80 133//80
f 150//83 139//83 141//83
f 150//83 151//83 139//83
f 33//84 7//84 6//84
f 34//84 33//84 6//84
f 10//84 34//84 6//84
f 36//84 34//84 10//84
f 16//84 36//84 10//84
f 32//84 13//84 7//84
f 33//84 32//84 7//84
f 44//84 36//84 16//84
f 22//85 44//84 16//84
f 35//86 19//84 13//84
f 32//84 35//86 13//84
f 46//86 44//84 22//85
f 28//84 46//86 22//85
f 37//86 25//84 19//84
f 35//86 37//86 19//84
f 54//84 46//86 28//84
f 40//84 54//84 28//84
f 45//85 31//84 25//84
f 37//86 45//85 25//84
f 57//84 54//84 40//84
f 50//84 57//84 40//84
f 47//85 43//84 31//84
f 45//85 47//85 31//84
f 65//84 57//84 50//84
f 60//84 65//84 50//84
f 55//84 53//84 43//84
f 47//85 55//84 43//84
f 58//84 53//84 55//84
f 73//84 65//84 60//84
f 68//84 73//84 60//84
f 58//84 63//84 53//84
f 66//84 63//84 58//84
f 81//84 73//84 68//84
f 76//84 81//84 68//84
f 66//84 71//84 63//84
f 74//86 71//84 66//84
f 85//84 81//84 76//84
f 88//84 85//84 76//84
f 74//86 79//84 71//84
f 82//84 79//84 74//86
f 88//84 93//84 85//84
f 87//84 90//86 82//84
f 90//86 79//84 82//84
f 96//84 93//84 88//84
f 96//84 101//84 93//84
f 95//84 98//84 87//84
f 98//84 90//86 87//84
f 110//84 101//84 96//84
f 110//84 106//86 101//84
f 103//84 111//85 95//84
f 111//85 98//84 95//84
f 110//84 118//84 106//86
f 118//84 114//86 106//86
f 109//84 119//85 103//84
f 119//85 111//85 103//84
f 118//84 143//84 114//86
f 143//84 122//84 114//86
f 117//84 144//84 109//84
f 144//84 119//85 109//84
f 143//84 145//84 122//84
f 145//84 128//84 122//84
f 125//84 146//84 117//84
f 146//84 144//84 117//84
f 145//84 147//84 128//84
f 147//84 134//84 128//84
f 131//84 148//84 125//84
f 148//84 146//84 125//84
f 147//84 149//84 134//84
f 149//84 140//87 134//84
f 137//84 150//88 131//84
f 150//88 148//84 131//84
f 149//84 152//84 140//87
f 152//84 142//87 140//87
f 142//87 151//86 137//84
f 151//86 150//88 137//84
f 152//84 151//86 142//87
